<svg viewBox="0 0 512 512" xml:space="preserve" xmlns="http://www.w3.org/2000/svg"><path fill="#164c5e" d="m286.189 10.023-88.355 86.174-35.996 137.442 54.54 221.432 77.447 46.906 14.181-50.178 29.451-311.97z" class="fill-5b153e fill-205c15"></path><linearGradient gradientUnits="userSpaceOnUse" id="a" x1="352.611" x2="198.471" y1="409.254" y2="40.885"><stop offset="0" stop-color="#5697cc" class="stop-color-cc5697 stop-color-56cc69"></stop><stop offset="1" stop-color="#84c3e8" class="stop-color-e585be stop-color-89e685"></stop></linearGradient><path fill="url(#a)" d="m337.457 139.829-54.54-58.903-75.266 104.717 86.174 316.334 14.181-50.177z" class="fillurl(-a)"></path><path fill="#a1daf7" d="M337.457 139.829 286.189 10.023l-3.272 70.903z" class="fill-f49fd3 fill-a2f59f"></path><path fill="#3783a1" d="m282.917 80.926 3.272-70.903-88.355 86.174 9.817 89.446zM207.651 185.643l8.727 269.428 77.447 46.906z" class="fill-a03774 fill-37a149"></path><path d="M135.817 47.732s2.546 24.612-17.54 35.928c0 0 20.086 6.602 21.218 30.459 0 0 .849-27.347 16.407-35.551 0 0-17.539-7.072-20.085-30.836zM373.637 222.807s2.547 24.611-17.539 35.928c0 0 20.086 6.602 21.217 30.459 0 0 .849-27.347 16.408-35.551 0 0-17.539-7.073-20.086-30.836zM154.63 356.787s2.546 24.612-17.54 35.929c0 0 20.086 6.602 21.218 30.459 0 0 .849-27.347 16.408-35.551 0 0-17.54-7.073-20.086-30.837z" fill="#b8e5ff" class="fill-ffe9fb fill-baffb8"></path></svg>