<svg viewBox="0 0 512 512" xml:space="preserve" xmlns="http://www.w3.org/2000/svg"><path d="M256 22.974h-27.656c-4.731 0-8.367 4.188-7.705 8.872l4.904 34.683h60.914l4.904-34.683c.662-4.685-2.974-8.872-7.705-8.872H256z" fill="#8095ba" class="fill-ba8280"></path><path fill="#5c7c96" d="m222.464 44.751 3.079 21.777h60.914l3.079-21.777z" class="fill-965c5c"></path><linearGradient gradientUnits="userSpaceOnUse" id="a" x1="256" x2="256" y1="475.661" y2="-13.83"><stop offset=".01" stop-color="#cce0ff" class="stop-color-ffcce0"></stop><stop offset="1" stop-color="#e5eeff" class="stop-color-ffe6fa"></stop></linearGradient><path d="m328.733 181.56.087.01c-.048-.01-.091-.026-.139-.036a170.962 170.962 0 0 0-5.371-2.581c-14.48-6.648-25.809-18.919-29.865-34.328a75.735 75.735 0 0 1-1.082-4.725c-1.135-5.801-1.559-11.743-.836-17.609 3.08-25.015 21.564-36.845 21.564-36.845H198.908s18.484 11.83 21.564 36.845c.723 5.866.299 11.809-.836 17.609a76.789 76.789 0 0 1-1.082 4.725c-4.058 15.409-15.385 27.68-29.865 34.328-1.808.83-3.598 1.691-5.371 2.581-.048.01-.091.026-.139.036l.087-.01c-56.602 28.424-94.309 88.938-89.133 157.693 6.142 81.592 73.709 146.511 155.471 149.65 92.571 3.555 168.735-70.437 168.735-162.217.001-63.499-36.48-118.448-89.606-145.126z" fill="url(#a)" class="fillurl(-a)"></path><path d="M312.854 59.05H196.377c-7.289 0-13.197 5.908-13.197 13.198 0 7.289 5.908 13.197 13.197 13.197h116.477c7.289 0 13.198-5.908 13.198-13.197 0-7.29-5.909-13.198-13.198-13.198z" fill="#cce0ff" class="fill-ffcce0"></path><path d="M198.908 85.445s7.582 4.887 13.846 14.958h86.492c6.264-10.071 13.846-14.958 13.846-14.958H198.908z" fill="#8ca8db" class="fill-db8da5"></path><path d="M384.15 333.04a128.921 128.921 0 0 0-1.703-28.852c-3.918-22.584-24.301-38.612-47.162-36.966-35.465 2.555-72.27 23.617-83.893 30.801-2.79 1.724-5.632 3.374-8.594 4.781-39.337 18.691-69.826 14.979-90.558 6.503-11.732-4.796-24.558 3.87-24.573 16.546v.299c0 73.722 62.162 132.925 136.932 128.052 64.314-4.191 116.159-56.803 119.551-121.164z" fill="#5697cc" class="fill-cc5697"></path><path d="M186.041 206.189s-35.918 7.771-43.749 52.925c-.852 4.907 2.501 9.619 7.404 10.492 7.724 1.376 20.066 1.479 34.174-6.28 6.333-3.482 11.892-8.19 16.729-13.561 5.931-6.581 13.164-16.51 14.123-26.594.947-9.973-7.45-18.322-17.468-18.325-3.356 0-7.208.335-11.213 1.343z" fill="#ffffff" class="fill-ffffff"></path><circle cx="182.974" cy="369.12" fill="#3771a1" r="15.998" class="fill-a03774"></circle><circle cx="244.055" cy="339.308" fill="#3771a1" r="4.908" class="fill-a03774"></circle><circle cx="282.23" cy="396.389" fill="#3771a1" r="27.269" class="fill-a03774"></circle><circle cx="332.041" cy="319.311" fill="#3771a1" r="12.543" class="fill-a03774"></circle></svg>