<?xml version="1.0" ?><svg id="Layer_1" style="enable-background:new 0 0 32 32;" version="1.1" viewBox="0 0 32 32" xml:space="preserve" xmlns="http://www.w3.org/2000/svg" xmlns:xlink="http://www.w3.org/1999/xlink"><style type="text/css">
	.st0{fill:#7A442A;}
	.st1{fill:#C77C58;}
	.st2{fill:#E4EDF2;}
</style><g id="Shield"><g><path class="st0" d="M16,6.63V25.5c0.116,0,0.211-0.042,0.306-0.116c4.477-4.055,7.318-9.778,8.004-16.04L16,6.63z"/><path class="st1" d="M16,6.63L7.679,9.344c0.697,6.251,3.527,11.975,8.015,16.04C15.789,25.458,15.884,25.5,16,25.5V6.63z"/><path class="st2" d="M28.339,5.889L16.736,2.115c-0.481-0.149-0.989-0.149-1.485,0.004l-11.59,3.77    C3.249,6.023,2.97,6.437,2.97,6.87c0,8.403,3.422,16.324,9.391,21.733c1.037,0.933,2.337,1.398,3.638,1.398    s2.604-0.467,3.643-1.401c5.966-5.407,9.388-13.328,9.388-21.731V6.84C29.03,6.407,28.751,6.023,28.339,5.889z M16.307,25.384    C16.211,25.458,16.116,25.5,16,25.5c-0.116,0-0.211-0.042-0.306-0.116c-4.488-4.065-7.318-9.789-8.015-16.04L16,6.63l8.31,2.714    C23.624,15.606,20.784,21.329,16.307,25.384z"/></g></g></svg>