<svg viewBox="0 0 512 512" xml:space="preserve" xmlns="http://www.w3.org/2000/svg"><linearGradient gradientUnits="userSpaceOnUse" id="a" x1="255.88" x2="255.88" y1="467.656" y2="161.346"><stop offset="0" stop-color="#cc5697" class="stop-color-cc5697"></stop><stop offset="1" stop-color="#8e3979" class="stop-color-8e3979"></stop></linearGradient><path d="M388.938 78.947c-.751-10.932-9.838-19.415-20.796-19.415H146.103c-10.889 0-19.942 8.381-20.782 19.237l-22.314 288.333c-.343 18.889 7.863 36.955 22.436 48.979 23.437 19.34 64.007 48.741 117.906 72.305a31.35 31.35 0 0 0 25.064 0c53.898-23.563 94.469-52.965 117.906-72.305 14.571-12.024 22.777-30.091 22.435-48.979L388.938 78.947z" fill="url(#a)" class="fillurl(-a)"></path><path d="M356.442 214.607s-10.946 47.027-8.96 87.547c.211 4.291-1.557 8.439-4.703 11.364-7.137 6.634-21.877 19.222-45.183 34.054.001 0-10.331-109.157 58.846-132.965z" fill="#c9ba45" class="fill-819fea fill-c9ba45"></path><path d="M155.558 214.607s10.946 47.027 8.96 87.547c-.211 4.291 1.557 8.439 4.703 11.364 7.137 6.634 21.877 19.222 45.183 34.054-.001 0 10.331-109.157-58.846-132.965z" fill="#FFFFFF" class="fill-ffffff"></path><path d="M177.839 321.074c8.249 6.908 20.268 16.127 36.564 26.498 0 0 4.458-63.892-26.219-110.058 6.126 32.527 16.37 67.08-10.345 83.56z" fill="#f0d74a" class="fill-c7daff fill-f0d74a"></path><path d="M207.234 264.084c-7.671-25.656-22.669-39.494-51.677-49.477 0 0 1.371 5.901 3.054 15.3 6.98 4.598 26.643 15.577 48.623 34.177z" fill="#c9ba45" class="fill-819fea fill-c9ba45"></path><path d="m116.606 36.749 26.591 26.97c6.084 6.172 9.468 14.51 9.303 23.175-.514 26.892-9.313 82.28-73.291 80.748 0 0-50.864.458-74.052-54.041-1.841-4.327.654-9.321 5.194-10.545 17.79-4.794 59.726-20.167 87.783-63.17 1.999-3.065 5.022-5.448 8.61-6.168 3.021-.607 6.635-.243 9.862 3.031z" fill="#FFFFFF" class="fill-ffffff"></path><path d="M27.277 110.997c28.994.741 55.828-14.918 71.089-39.582 6.293-10.169 11.858-23.088 13.021-37.676-1.611-.368-3.196-.313-4.643-.022-3.588.72-6.611 3.104-8.61 6.168-28.058 43.003-69.993 58.376-87.783 63.17-2.512.677-4.359 2.522-5.23 4.756a96.375 96.375 0 0 0 22.156 3.186zM303.908 278.139c16.354-23.814 40.549-41.418 49.322-47.337 1.754-9.918 3.212-16.194 3.212-16.194-30.1 10.358-45.138 36.877-52.534 63.531z" fill="#c9ba45" class="fill-819fea fill-c9ba45"></path><path d="M342.588 224.278c-32.667 18.659-86.505 57.548-86.718 57.702-.214-.154-54.052-39.043-86.718-57.702-.449-.256-.907.319-.553.697 8.948 9.546 41.252 49.083 38.004 119.423-.146 3.172 1.218 6.215 3.757 8.123 7.341 5.518 24.104 17.219 45.499 26.486 0 0 38.314-21.045 45.52-26.486 2.534-1.914 3.903-4.951 3.757-8.123-3.247-70.341 29.056-109.877 38.005-119.423.353-.377-.105-.953-.553-.697z" fill="#FFFFFF" class="fill-ffffff"></path><path d="M342.611 224.265c-32.664 18.654-86.528 57.562-86.741 57.716h-.001v38.471c0 16.534-12.903 30.654-29.433 31.092-7.447.197-14.444-1.239-18.877-2.434a9.316 9.316 0 0 0 2.801 3.451c7.344 5.52 24.114 17.227 45.52 26.494v-.059c.394-.217 38.331-21.063 45.499-26.475 2.534-1.914 3.903-4.951 3.757-8.123-3.248-70.352 29.065-109.889 38.009-119.428.351-.374-.087-.96-.534-.705z" fill="#f0d74a" class="fill-c7daff fill-f0d74a"></path><path d="M342.588 224.278c-32.667 18.659-86.505 57.548-86.718 57.702-.214-.154-54.052-39.043-86.718-57.702-.449-.256-.907.319-.553.697 2.576 2.749 10.676 13.794 15.719 21.535 17.398 12.146 39.061 28.756 71.551 53.881 33.421-25.125 53.443-38.088 69.701-47.27 5.043-7.741 14.993-25.397 17.57-28.146.354-.377-.104-.953-.552-.697z" fill="#c9ba45" class="fill-819fea fill-c9ba45"></path><path d="M369.938 185.458c-22.293 17.219-114.047 47.054-114.059 47.058-.012-.004-91.766-29.839-114.058-47.058-.604-.467-1.422.15-1.145.862l10.185 26.186a15.063 15.063 0 0 0 5.348 6.841l99.67 70.385v.001-.001l.001.001v-.001l99.669-70.385a15.07 15.07 0 0 0 5.348-6.841l10.185-26.186c.276-.712-.541-1.329-1.144-.862z" fill="#FFFFFF" class="fill-ffffff"></path><path d="m230.004 271.46 25.876 18.273v-57.218s-42.604-13.856-76.808-28.133c19.029 15.264 41.547 38.299 50.932 67.078z" fill="#f7ea9e" class="fill-deeeff fill-f7ea9e"></path><path d="M200.478 21s-7.829 27.402 15.249 49.317c3.152 2.994 3.933 7.729 2.077 11.661l-19.554 41.44s-48.083 2.246-65.152-28.3l1.797-27.851c0 .002 30.544-30.994 65.583-46.267z" fill="#c9ba45" class="fill-819fea fill-c9ba45"></path><path d="M126.809 61.429s17.573-21.002 43.798-31.972c4.344-1.817 9.259.783 10.108 5.414 1.623 8.854 4.073 23.56 5.553 38.841 1.926 19.875-13.67 37.717-33.636 37.436a46.367 46.367 0 0 1-2.793-.125l-23.03-49.594z" fill="#8c266b" class="fill-8c266b"></path><path d="M311.522 21s7.829 27.402-15.249 49.317c-3.152 2.994-3.933 7.729-2.077 11.661l19.554 41.44s48.083 2.246 65.152-28.3l-1.797-27.851c0 .002-30.545-30.994-65.583-46.267z" fill="#c9ba45" class="fill-819fea fill-c9ba45"></path><path d="M385.191 61.429s-17.573-21.002-43.798-31.972c-4.344-1.817-9.259.783-10.108 5.414-1.623 8.854-4.073 23.56-5.554 38.841-1.925 19.875 13.671 37.717 33.637 37.436a46.367 46.367 0 0 0 2.793-.125l23.03-49.594z" fill="#8c266b" class="fill-8c266b"></path><path d="M319.83 37.695c-1.206-5.692-3.748-11.557-8.549-16.695 0 0-12.986 29.232-55.401 29.232-42.416 0-55.401-29.232-55.401-29.232-4.802 5.139-7.344 11.003-8.55 16.695-4.11 19.405 7.276 38.972 25.778 46.123 17.945 6.936 38.173 6.229 38.173 6.229s20.228.707 38.172-6.229c18.502-7.151 29.889-26.717 25.778-46.123z" fill="#635811" class="fill-5071ba fill-bfaf54"></path><path d="M304.814 81.771a11.921 11.921 0 0 0-10.602-6.471h-76.666a11.92 11.92 0 0 0-10.601 6.471l-17.887 34.796c25.455 28.54 66.821 34.325 66.821 34.325s41.366-5.785 66.82-34.325l-17.885-34.796z" fill="#FFFFFF" class="fill-ffffff"></path><path d="m322.7 116.567-17.886-34.796a11.921 11.921 0 0 0-10.602-6.471H255.88v75.592s41.366-5.786 66.82-34.325z" fill="#f0d74a" class="fill-c7daff fill-f0d74a"></path><path d="M315.114 101.341a336.809 336.809 0 0 1-26.536 12.1 87.126 87.126 0 0 1-65.458-.066c-11.898-4.836-21.248-9.5-26.234-12.034l-7.827 15.226c25.455 28.54 66.821 34.325 66.821 34.325s41.606-5.785 67.062-34.325l-7.828-15.226z" fill="#c9ba45" class="fill-819fea fill-c9ba45"></path><path d="M369.938 185.458c-22.291 17.218-114.037 47.05-114.058 47.058v57.217l99.669-70.385a15.07 15.07 0 0 0 5.348-6.841l10.185-26.186c.276-.713-.541-1.33-1.144-.863z" fill="#f0d74a" class="fill-c7daff fill-f0d74a"></path><path d="M369.938 185.458c-22.293 17.219-114.047 47.054-114.059 47.058-.012-.004-91.766-29.839-114.058-47.058-.604-.467-1.422.15-1.145.862l5.248 13.494c17.483 9.881 74.367 41.479 109.944 54.778 0 0 67.738-26.227 109.907-54.633l5.305-13.639c.278-.712-.539-1.329-1.142-.862z" fill="#c9ba45" class="fill-819fea fill-c9ba45"></path><path d="m411.631 157.347-39.61-47.533a29.013 29.013 0 0 0-22.287-10.438c-5.98 0-11.813 1.822-16.69 5.284-13.251 9.407-43.496 28.746-77.164 35.94-33.669-7.195-63.915-26.534-77.165-35.94-4.877-3.462-10.71-5.284-16.69-5.284a29.012 29.012 0 0 0-22.287 10.438l-39.611 47.533c53.449 55.381 155.752 83.093 155.752 83.093s102.303-27.712 155.752-83.093z" fill="#FFFFFF" class="fill-ffffff"></path><path d="M176.761 209.076c-20.626-17.934-32.199-44.612-29.381-71.799 1.944-18.757 9.89-31.254 15.371-37.847-.244-.006-.482-.056-.728-.056a29.012 29.012 0 0 0-22.287 10.438l-39.611 47.533c21.657 22.44 51.325 40.332 78.962 53.681a109.205 109.205 0 0 1-2.326-1.95zM255.88 240.439v-56.871c-3.71 21.197-14.596 43.046-43.805 41.863 25.325 9.993 43.805 15.008 43.805 15.008zM411.631 157.347l-39.61-47.533a29.013 29.013 0 0 0-22.287-10.438c-5.98 0-11.813 1.822-16.69 5.284-13.251 9.407-43.496 28.746-77.164 35.94v99.84c.026-.009 102.309-27.719 155.751-83.093z" fill="#f0d74a" class="fill-c7daff fill-f0d74a"></path><path d="M152.5 86.894c.165-8.666-3.219-17.003-9.303-23.175l-26.591-26.97c-3.228-3.274-6.842-3.638-9.861-3.032-.171.035-.323.118-.491.159-1.749 7.44-3.271 14.286-3.258 15.535.764 72.478-27.937 103.65-42.92 114.971 11.111 3.318 19.133 3.259 19.133 3.259 63.979 1.533 72.777-53.855 73.291-80.747z" fill="#f7ea9e" class="fill-deeeff fill-f7ea9e"></path><path d="M106.745 33.717c-3.588.72-6.611 3.104-8.61 6.168-8.959 13.73-19.333 24.619-29.884 33.271 9.452-1.689 19.37-1.866 28.165 1.201.658-.974 1.329-1.938 1.95-2.942 6.293-10.169 11.858-23.088 13.021-37.676-1.611-.368-3.196-.312-4.642-.022z" fill="#c9ba45" class="fill-819fea fill-c9ba45"></path><path d="m395.394 36.749-26.591 26.97c-6.084 6.172-9.468 14.51-9.303 23.175.514 26.892 9.313 82.28 73.291 80.748 0 0 50.864.458 74.052-54.041 1.841-4.327-.654-9.321-5.194-10.545-17.79-4.794-59.727-20.167-87.783-63.17-1.999-3.065-5.022-5.448-8.61-6.168-3.021-.607-6.635-.243-9.862 3.031z" fill="#FFFFFF" class="fill-ffffff"></path><path d="M501.648 103.056c-17.79-4.794-59.727-20.167-87.783-63.17-1.999-3.065-5.022-5.448-8.61-6.168-.254-.051-.519-.083-.78-.12 10.393 19.826 36.815 78.861 16.63 133.646 3.678.351 7.563.498 11.687.399 0 0 50.864.458 74.052-54.041 1.84-4.328-.656-9.323-5.196-10.546z" fill="#f7ea9e" class="fill-deeeff fill-f7ea9e"></path><path d="M484.723 110.997c-28.994.741-55.828-14.918-71.09-39.582-6.292-10.169-11.857-23.088-13.021-37.676 1.612-.368 3.196-.313 4.643-.022 3.588.72 6.611 3.104 8.61 6.168 28.058 43.003 69.992 58.376 87.783 63.17 2.512.677 4.359 2.522 5.23 4.756a96.357 96.357 0 0 1-22.155 3.186z" fill="#c9ba45" class="fill-819fea fill-c9ba45"></path><path d="M292.473 148.836c-7.966-2.337-16.68 2.919-20.912 8.367a5.72 5.72 0 0 0-.959 1.859c-4.807 14.603 4.693 22.51 5.298 22.794 7.002 5.544 14.308-5.699 16.802-10.932 2.856-5.994 8.056-19.657-.229-22.088zM312.383 135.831h-.434c-2.791 0-5.464 2.453-5.335 5.334.13 2.89 2.345 5.334 5.335 5.334h.434c2.791 0 5.464-2.454 5.335-5.334-.13-2.891-2.344-5.334-5.335-5.334z" fill="#FFFFFF" class="fill-ffffff"></path></svg>