<svg viewBox="0 0 512 512" xml:space="preserve" xmlns="http://www.w3.org/2000/svg"><circle cx="256" cy="51.255" fill="#735335" r="8.626" class="fill-c7daff"></circle><path d="M237.901 57.425s-113.113 5.347-113.113 143.963h113.113V57.425z" fill="#c9b4a1" class="fill-ffffff"></path><path d="M274.099 57.425s113.113 5.347 113.113 143.963H274.099V57.425z" fill="#735335" class="fill-c7daff"></path><path d="M256 233.39H148.468v136.648c0 8.557 8.575 14.362 16.572 11.32 17.129-6.517 47.503-14.835 90.96-14.835s73.831 8.318 90.96 14.835c7.997 3.042 16.572-2.764 16.572-11.32V233.39H256z" fill="#9c7b5c" class="fill-8c266b"></path><path d="M140.446 201.388h97.455V66.648c-8.421 67.37-34.102 111.622-97.455 134.74z" fill="#735335" class="fill-c7daff"></path><path d="M271.014 51.255h-30.028a5.553 5.553 0 0 0-5.553 5.553v141.701H276.566V56.808a5.553 5.553 0 0 0-5.552-5.553z" fill="#c9b4a1" class="fill-ffffff"></path><linearGradient gradientUnits="userSpaceOnUse" id="a" x1="140.446" x2="140.446" y1="449.008" y2="277.406"><stop offset="0" stop-color="#806046" class="stop-color-cc5697"></stop><stop offset="1" stop-color="#8c5726" class="stop-color-8e3979"></stop></linearGradient><path d="M131.423 245.289c-1.552 18.332-9.396 103.005-26.645 164.654-1.132 4.045-.538 8.384 1.803 11.872 6.762 10.077 24.187 31.024 60.022 46.921 4.937 2.191 10.444-1.576 10.045-6.963-1.963-26.494-6.161-95.002-3.053-162.698 0 0-31.056-17.519-40.996-53.852-.18-.658-1.119-.614-1.176.066z" fill="url(#a)" class="fillurl(-a)"></path><linearGradient gradientUnits="userSpaceOnUse" id="b" x1="371.555" x2="371.555" y1="444.315" y2="284.25"><stop offset="0" stop-color="#806046" class="stop-color-cc5697"></stop><stop offset="1" stop-color="#8c5726" class="stop-color-8e3979"></stop></linearGradient><path d="M380.577 245.289c1.552 18.332 9.396 103.005 26.645 164.654 1.132 4.045.538 8.384-1.803 11.872-6.763 10.077-24.187 31.024-60.022 46.921-4.937 2.191-10.444-1.576-10.045-6.963 1.963-26.494 6.161-95.002 3.053-162.698 0 0 31.055-17.519 40.997-53.852.179-.658 1.118-.614 1.175.066z" fill="url(#b)" class="fillurl(-b)"></path><path d="M158.828 238.666s5.611 54.24 86.889 50.188l-.54 28.99s-105.364 12.781-116.274-79.178h29.925z" fill="#c9b4a1" class="fill-ffffff"></path><circle cx="256" cy="103.039" fill="#735335" r="8.626" class="fill-c7daff"></circle><circle cx="256" cy="158.58" fill="#735335" r="8.626" class="fill-c7daff"></circle><path d="M353.172 238.666s-5.611 54.24-86.889 50.188l.54 28.99s105.364 12.781 116.274-79.178h-29.925z" fill="#c9b4a1" class="fill-ffffff"></path><path d="M256 238.666h-13.941v82.299a8.725 8.725 0 0 0 8.726 8.725H261.216a8.725 8.725 0 0 0 8.726-8.725v-82.299H256z" fill="#735335" class="fill-c7daff"></path><path d="M274.099 201.388h113.113c0-4.414-.12-8.687-.343-12.835h-112.77v12.835zM347.06 255.698h32.618a106.551 106.551 0 0 0 3.42-17.033h-29.926c0 .001-.797 7.675-6.112 17.033zM158.828 238.666h-29.926a106.439 106.439 0 0 0 3.421 17.033h32.616c-5.313-9.359-6.111-17.033-6.111-17.033zM242.059 238.666v17.031h27.882v-17.031H256zM125.131 188.553a238.88 238.88 0 0 0-.343 12.835h113.113v-12.835h-112.77z" fill="#e6dbd1" class="fill-819fea"></path><path fill="#735335" d="M235.434 188.553v9.956h41.132v-9.956z" class="fill-c7daff"></path><path d="M388.857 198.509H123.143a6.17 6.17 0 0 0-6.17 6.17v30.849a6.17 6.17 0 0 0 6.17 6.17h265.714a6.17 6.17 0 0 0 6.17-6.17v-30.849a6.17 6.17 0 0 0-6.17-6.17z" fill="#c9b4a1" class="fill-ffffff"></path><circle cx="142.626" cy="220.104" fill="#735335" r="8.625" class="fill-c7daff"></circle><circle cx="199.313" cy="220.104" fill="#735335" r="8.626" class="fill-c7daff"></circle><circle cx="256" cy="220.104" fill="#735335" r="8.626" class="fill-c7daff"></circle><circle cx="369.374" cy="220.104" fill="#735335" r="8.625" class="fill-c7daff"></circle><circle cx="312.687" cy="220.104" fill="#735335" r="8.626" class="fill-c7daff"></circle></svg>