<?xml version="1.0" ?><svg viewBox="0 0 60 60" xmlns="http://www.w3.org/2000/svg"><title/><g data-name="Layer 1" id="Layer_1"><path d="M48.93359,48.48291,37,22.7793V12.87354A4.00031,4.00031,0,0,0,36,5h-.10242l1.06433-3.7251A1.00009,1.00009,0,0,0,36,0H24a1.00009,1.00009,0,0,0-.96191,1.2749L24.10242,5H24a4.00031,4.00031,0,0,0-1,7.87354V22.7793L11.06641,48.48145a4.93916,4.93916,0,0,0,.63574,5.2373C15.34082,58.063,20.98438,60,30,60s14.65918-1.937,18.29785-6.28125A4.937,4.937,0,0,0,48.93359,48.48291ZM34.67383,2,33.24609,7H26.75391L25.32617,2Zm-9.7666,21.4209A1.00923,1.00923,0,0,0,25,23V12a.99974.99974,0,0,0-1-1,2,2,0,0,1,0-4h.67383l.36426,1.2749A1.00094,1.00094,0,0,0,26,9h8a1.00094,1.00094,0,0,0,.96191-.7251L35.32617,7H36a2,2,0,0,1,0,4,.99974.99974,0,0,0-1,1V23a.99431.99431,0,0,0,.09277.4209l3.48035,7.49658c-5.43958-.21387-7.334.96729-9.163,2.11523-1.79993,1.12982-3.66614,2.29224-9.915,2.045ZM46.76465,52.43457C43.54,56.28369,38.37012,58,30,58s-13.54-1.71631-16.76465-5.56543a2.93155,2.93155,0,0,1-.35449-3.11084L18.588,37.03143c.892.049,1.731.07892,2.48425.07892,5.60254,0,7.60449-1.25635,9.40137-2.38379,1.82672-1.14709,3.42737-2.13782,9.053-1.75519L47.11914,49.3252A2.92927,2.92927,0,0,1,46.76465,52.43457Z"/><path d="M17.7392,46.08594a1.0032,1.0032,0,0,0-1.32031.50781l-1.333,3a1.00027,1.00027,0,1,0,1.82813.8125l1.333-3A1.0009,1.0009,0,0,0,17.7392,46.08594Z"/><path d="M20.40619,40.08594a1.00164,1.00164,0,0,0-1.32031.50781l-.88867,2a1.00027,1.00027,0,1,0,1.82813.8125l.88867-2A1.0009,1.0009,0,0,0,20.40619,40.08594Z"/></g></svg>